<svg width="225" height="225" viewBox="0 0 225 225" fill="none" xmlns="http://www.w3.org/2000/svg">
<circle cx="112.5" cy="112.5" r="90.5" fill="#EAEAEA"/>
<g filter="url(#filter0_d_44_2)">
<rect x="21" y="68" width="182" height="89" rx="6" fill="#FEFEFE"/>
</g>
<g filter="url(#filter1_d_44_2)">
<rect x="109" y="93" width="66" height="9" rx="4.5" fill="#D9D9D9"/>
</g>
<g filter="url(#filter2_d_44_2)">
<rect x="109" y="108" width="53" height="6" rx="3" fill="#D9D9D9"/>
</g>
<g filter="url(#filter3_d_44_2)">
<rect x="109" y="116" width="40" height="6" rx="3" fill="#D9D9D9"/>
</g>
<g filter="url(#filter4_d_44_2)">
<rect x="109" y="125" width="45" height="6" rx="3" fill="#D9D9D9"/>
</g>
<g clip-path="url(#clip0_44_2)" filter="url(#filter5_d_44_2)">
<g filter="url(#filter6_d_44_2)">
<path d="M82.1462 114.816C82.2412 114.056 82.3125 113.284 82.3125 112.5C82.3125 111.716 82.2412 110.944 82.1462 110.184L87.1694 106.254C87.6206 105.897 87.7512 105.256 87.4544 104.734L82.7044 96.5044C82.4075 95.9937 81.79 95.78 81.2556 95.9937L75.3419 98.3806C74.1187 97.4425 72.7769 96.6469 71.3281 96.0412L70.4375 89.7475C70.3306 89.1894 69.8437 88.75 69.25 88.75H59.75C59.1562 88.75 58.6694 89.1894 58.5744 89.7475L57.6837 96.0412C56.235 96.6469 54.8931 97.4306 53.67 98.3806L47.7562 95.9937C47.2219 95.7919 46.6044 95.9937 46.3075 96.5044L41.5575 104.734C41.2606 105.244 41.3912 105.886 41.8425 106.254L46.8537 110.184C46.7587 110.944 46.6875 111.716 46.6875 112.5C46.6875 113.284 46.7587 114.056 46.8537 114.816L41.8425 118.746C41.3912 119.102 41.2606 119.744 41.5575 120.266L46.3075 128.496C46.6044 129.006 47.2219 129.22 47.7562 129.006L53.67 126.619C54.8931 127.557 56.235 128.353 57.6837 128.959L58.5744 135.252C58.6694 135.811 59.1562 136.25 59.75 136.25H69.25C69.8437 136.25 70.3306 135.811 70.4256 135.252L71.3162 128.959C72.765 128.353 74.1069 127.569 75.33 126.619L81.2437 129.006C81.7781 129.208 82.3956 129.006 82.6925 128.496L87.4425 120.266C87.7394 119.756 87.6087 119.114 87.1575 118.746L82.1462 114.816ZM64.5 120.812C59.9044 120.812 56.1875 117.096 56.1875 112.5C56.1875 107.904 59.9044 104.187 64.5 104.187C69.0956 104.187 72.8125 107.904 72.8125 112.5C72.8125 117.096 69.0956 120.812 64.5 120.812Z" fill="#008060"/>
</g>
</g>
<defs>
<filter id="filter0_d_44_2" x="17" y="68" width="190" height="97" filterUnits="userSpaceOnUse" color-interpolation-filters="sRGB">
<feFlood flood-opacity="0" result="BackgroundImageFix"/>
<feColorMatrix in="SourceAlpha" type="matrix" values="0 0 0 0 0 0 0 0 0 0 0 0 0 0 0 0 0 0 127 0" result="hardAlpha"/>
<feOffset dy="4"/>
<feGaussianBlur stdDeviation="2"/>
<feComposite in2="hardAlpha" operator="out"/>
<feColorMatrix type="matrix" values="0 0 0 0 0 0 0 0 0 0 0 0 0 0 0 0 0 0 0.25 0"/>
<feBlend mode="normal" in2="BackgroundImageFix" result="effect1_dropShadow_44_2"/>
<feBlend mode="normal" in="SourceGraphic" in2="effect1_dropShadow_44_2" result="shape"/>
</filter>
<filter id="filter1_d_44_2" x="105" y="93" width="74" height="17" filterUnits="userSpaceOnUse" color-interpolation-filters="sRGB">
<feFlood flood-opacity="0" result="BackgroundImageFix"/>
<feColorMatrix in="SourceAlpha" type="matrix" values="0 0 0 0 0 0 0 0 0 0 0 0 0 0 0 0 0 0 127 0" result="hardAlpha"/>
<feOffset dy="4"/>
<feGaussianBlur stdDeviation="2"/>
<feComposite in2="hardAlpha" operator="out"/>
<feColorMatrix type="matrix" values="0 0 0 0 0 0 0 0 0 0 0 0 0 0 0 0 0 0 0.25 0"/>
<feBlend mode="normal" in2="BackgroundImageFix" result="effect1_dropShadow_44_2"/>
<feBlend mode="normal" in="SourceGraphic" in2="effect1_dropShadow_44_2" result="shape"/>
</filter>
<filter id="filter2_d_44_2" x="105" y="108" width="61" height="14" filterUnits="userSpaceOnUse" color-interpolation-filters="sRGB">
<feFlood flood-opacity="0" result="BackgroundImageFix"/>
<feColorMatrix in="SourceAlpha" type="matrix" values="0 0 0 0 0 0 0 0 0 0 0 0 0 0 0 0 0 0 127 0" result="hardAlpha"/>
<feOffset dy="4"/>
<feGaussianBlur stdDeviation="2"/>
<feComposite in2="hardAlpha" operator="out"/>
<feColorMatrix type="matrix" values="0 0 0 0 0 0 0 0 0 0 0 0 0 0 0 0 0 0 0.25 0"/>
<feBlend mode="normal" in2="BackgroundImageFix" result="effect1_dropShadow_44_2"/>
<feBlend mode="normal" in="SourceGraphic" in2="effect1_dropShadow_44_2" result="shape"/>
</filter>
<filter id="filter3_d_44_2" x="105" y="116" width="48" height="14" filterUnits="userSpaceOnUse" color-interpolation-filters="sRGB">
<feFlood flood-opacity="0" result="BackgroundImageFix"/>
<feColorMatrix in="SourceAlpha" type="matrix" values="0 0 0 0 0 0 0 0 0 0 0 0 0 0 0 0 0 0 127 0" result="hardAlpha"/>
<feOffset dy="4"/>
<feGaussianBlur stdDeviation="2"/>
<feComposite in2="hardAlpha" operator="out"/>
<feColorMatrix type="matrix" values="0 0 0 0 0 0 0 0 0 0 0 0 0 0 0 0 0 0 0.25 0"/>
<feBlend mode="normal" in2="BackgroundImageFix" result="effect1_dropShadow_44_2"/>
<feBlend mode="normal" in="SourceGraphic" in2="effect1_dropShadow_44_2" result="shape"/>
</filter>
<filter id="filter4_d_44_2" x="105" y="125" width="53" height="14" filterUnits="userSpaceOnUse" color-interpolation-filters="sRGB">
<feFlood flood-opacity="0" result="BackgroundImageFix"/>
<feColorMatrix in="SourceAlpha" type="matrix" values="0 0 0 0 0 0 0 0 0 0 0 0 0 0 0 0 0 0 127 0" result="hardAlpha"/>
<feOffset dy="4"/>
<feGaussianBlur stdDeviation="2"/>
<feComposite in2="hardAlpha" operator="out"/>
<feColorMatrix type="matrix" values="0 0 0 0 0 0 0 0 0 0 0 0 0 0 0 0 0 0 0.25 0"/>
<feBlend mode="normal" in2="BackgroundImageFix" result="effect1_dropShadow_44_2"/>
<feBlend mode="normal" in="SourceGraphic" in2="effect1_dropShadow_44_2" result="shape"/>
</filter>
<filter id="filter5_d_44_2" x="32" y="84" width="65" height="65" filterUnits="userSpaceOnUse" color-interpolation-filters="sRGB">
<feFlood flood-opacity="0" result="BackgroundImageFix"/>
<feColorMatrix in="SourceAlpha" type="matrix" values="0 0 0 0 0 0 0 0 0 0 0 0 0 0 0 0 0 0 127 0" result="hardAlpha"/>
<feOffset dy="4"/>
<feGaussianBlur stdDeviation="2"/>
<feComposite in2="hardAlpha" operator="out"/>
<feColorMatrix type="matrix" values="0 0 0 0 0 0 0 0 0 0 0 0 0 0 0 0 0 0 0.25 0"/>
<feBlend mode="normal" in2="BackgroundImageFix" result="effect1_dropShadow_44_2"/>
<feBlend mode="normal" in="SourceGraphic" in2="effect1_dropShadow_44_2" result="shape"/>
</filter>
<filter id="filter6_d_44_2" x="37.3981" y="88.75" width="54.2157" height="55.5" filterUnits="userSpaceOnUse" color-interpolation-filters="sRGB">
<feFlood flood-opacity="0" result="BackgroundImageFix"/>
<feColorMatrix in="SourceAlpha" type="matrix" values="0 0 0 0 0 0 0 0 0 0 0 0 0 0 0 0 0 0 127 0" result="hardAlpha"/>
<feOffset dy="4"/>
<feGaussianBlur stdDeviation="2"/>
<feComposite in2="hardAlpha" operator="out"/>
<feColorMatrix type="matrix" values="0 0 0 0 0 0 0 0 0 0 0 0 0 0 0 0 0 0 0.25 0"/>
<feBlend mode="normal" in2="BackgroundImageFix" result="effect1_dropShadow_44_2"/>
<feBlend mode="normal" in="SourceGraphic" in2="effect1_dropShadow_44_2" result="shape"/>
</filter>
<clipPath id="clip0_44_2">
<rect width="57" height="57" fill="white" transform="translate(36 84)"/>
</clipPath>
</defs>
</svg>
