<svg width="225" height="225" viewBox="0 0 225 225" fill="none" xmlns="http://www.w3.org/2000/svg">
<circle cx="112.5" cy="112.5" r="90.5" fill="#EAEAEA"/>
<path d="M107.835 76.8066C107.72 77.1086 107.606 78.4671 107.606 79.788V82.1655L104.86 82.9957C103.334 83.4486 100.817 84.4675 99.2535 85.26L96.4313 86.7318L94.5625 84.9581C93.5328 83.9769 92.503 83.1089 92.2742 83.0335C91.8547 82.8825 84.3414 90.1282 84.3414 90.6943C84.3414 90.9208 85.1805 91.9397 86.2483 92.9964L88.1553 94.8833L86.6679 97.7136C85.8288 99.2609 84.7991 101.789 84.3414 103.261L83.5024 106.016H80.9853C79.5741 106.016 78.2012 106.167 77.9342 106.318C77.591 106.582 77.4765 107.978 77.5528 112.092L77.6672 117.526L80.5657 117.639L83.4643 117.753L84.1507 120.206C84.5321 121.564 85.5619 124.093 86.439 125.829L88.079 128.961L86.2102 130.772C85.1805 131.791 84.3414 132.848 84.3414 133.188C84.3414 133.791 91.5877 141.113 92.1979 141.113C92.3886 141.113 93.4183 140.245 94.4862 139.188L96.4694 137.263L100.016 138.999C101.999 139.98 104.517 140.962 105.623 141.226L107.606 141.679V144.32C107.606 145.905 107.796 147.188 108.063 147.453C108.597 147.981 118.17 148.094 118.933 147.604C119.2 147.453 119.429 146.17 119.505 144.547L119.619 141.754L122.06 141.075C123.433 140.735 125.95 139.716 127.743 138.811L130.946 137.226L132.853 139.15C133.921 140.245 134.875 141.113 135.027 141.113C135.142 141.113 137.049 139.339 139.261 137.15L143.227 133.188L141.206 131.15L139.146 129.074L140.748 125.904C141.663 124.168 142.693 121.677 143.036 120.319L143.723 117.904L146.545 117.79C148.185 117.715 149.482 117.488 149.634 117.224C150.13 116.47 150.016 106.997 149.482 106.469C149.215 106.205 147.918 106.016 146.316 106.016H143.57L143.113 103.903C142.846 102.771 141.854 100.28 140.901 98.3929L139.184 94.9965L141.129 93.0341C142.197 91.9774 143.074 90.9585 143.074 90.7698C143.074 90.166 135.676 82.9957 135.065 82.9957C134.722 82.9957 133.654 83.826 132.624 84.8449L130.794 86.6941L127.628 85.0713C125.874 84.2033 123.319 83.1844 121.946 82.807L119.467 82.1277L119.352 79.2596L119.238 76.3915L113.67 76.2783C108.826 76.2028 108.063 76.2783 107.835 76.8066ZM118.857 88.0904C128.773 90.1282 136.705 98.7326 138.078 108.884C140.252 124.508 126.294 138.32 110.504 136.169C94.4862 134.018 84.7991 117.79 90.7105 102.997C95.1346 91.9774 107.072 85.6374 118.857 88.0904Z" fill="#008060"/>
<path d="M109.131 91.1095C96.5076 93.9398 89.0706 106.96 93.2658 118.923C95.6304 125.564 101.389 130.848 108.216 132.622C111 133.339 116.301 133.339 119.047 132.622C126.484 130.659 132.51 124.696 134.493 117.338C135.218 114.62 135.218 109.375 134.493 106.62C133.197 101.714 129.764 96.9966 125.455 94.1663C120.916 91.1849 114.318 89.9396 109.131 91.1095ZM115.615 96.3551V98.3929L117.255 98.6194C118.132 98.7703 119.429 99.1854 120.077 99.6006L121.259 100.318L120.649 102.054C120.191 103.261 119.848 103.752 119.429 103.601C119.124 103.488 118.17 103.148 117.331 102.846C114.394 101.752 111.801 102.28 110.695 104.167C110.237 104.997 110.237 105.337 110.619 106.318C111.038 107.299 111.877 107.865 115.005 109.45C119.429 111.677 120.42 112.432 121.374 114.507C123.166 118.356 121.183 122.961 117.064 124.696C115.653 125.263 115.615 125.3 115.615 127.338V129.414H113.708H111.801V127.376V125.376L110.085 125.149C109.131 124.998 107.682 124.546 106.805 124.13C105.165 123.262 105.127 123.074 106.08 120.545C106.538 119.413 106.5 119.413 108.483 120.432C110.695 121.564 114.356 121.602 115.882 120.508C116.721 119.866 116.988 119.375 117.064 118.055C117.217 115.903 116.568 115.3 111.992 113.073C107.224 110.733 105.699 108.96 105.699 105.714C105.737 102.808 107.644 100.167 110.504 99.1477C111.763 98.6948 111.801 98.6571 111.801 96.506V94.3172H113.708H115.615V96.3551Z" fill="#008060"/>
</svg>
